%TF.GenerationSoftware,KiCad,Pcbnew,9.0.3*%
%TF.CreationDate,2025-10-17T23:17:00-07:00*%
%TF.ProjectId,Small_car_electronics.FCStd,536d616c-6c5f-4636-9172-5f656c656374,rev?*%
%TF.SameCoordinates,Original*%
%TF.FileFunction,Copper,L2,Bot*%
%TF.FilePolarity,Positive*%
%FSLAX46Y46*%
G04 Gerber Fmt 4.6, Leading zero omitted, Abs format (unit mm)*
G04 Created by KiCad (PCBNEW 9.0.3) date 2025-10-17 23:17:00*
%MOMM*%
%LPD*%
G01*
G04 APERTURE LIST*
G04 Aperture macros list*
%AMRoundRect*
0 Rectangle with rounded corners*
0 $1 Rounding radius*
0 $2 $3 $4 $5 $6 $7 $8 $9 X,Y pos of 4 corners*
0 Add a 4 corners polygon primitive as box body*
4,1,4,$2,$3,$4,$5,$6,$7,$8,$9,$2,$3,0*
0 Add four circle primitives for the rounded corners*
1,1,$1+$1,$2,$3*
1,1,$1+$1,$4,$5*
1,1,$1+$1,$6,$7*
1,1,$1+$1,$8,$9*
0 Add four rect primitives between the rounded corners*
20,1,$1+$1,$2,$3,$4,$5,0*
20,1,$1+$1,$4,$5,$6,$7,0*
20,1,$1+$1,$6,$7,$8,$9,0*
20,1,$1+$1,$8,$9,$2,$3,0*%
%AMFreePoly0*
4,1,37,0.603843,0.796157,0.639018,0.796157,0.711114,0.766294,0.766294,0.711114,0.796157,0.639018,0.796157,0.603843,0.800000,0.600000,0.800000,-0.600000,0.796157,-0.603843,0.796157,-0.639018,0.766294,-0.711114,0.711114,-0.766294,0.639018,-0.796157,0.603843,-0.796157,0.600000,-0.800000,0.000000,-0.800000,0.000000,-0.796148,-0.078414,-0.796148,-0.232228,-0.765552,-0.377117,-0.705537,
-0.507515,-0.618408,-0.618408,-0.507515,-0.705537,-0.377117,-0.765552,-0.232228,-0.796148,-0.078414,-0.796148,0.078414,-0.765552,0.232228,-0.705537,0.377117,-0.618408,0.507515,-0.507515,0.618408,-0.377117,0.705537,-0.232228,0.765552,-0.078414,0.796148,0.000000,0.796148,0.000000,0.800000,0.600000,0.800000,0.603843,0.796157,0.603843,0.796157,$1*%
%AMFreePoly1*
4,1,37,0.000000,0.796148,0.078414,0.796148,0.232228,0.765552,0.377117,0.705537,0.507515,0.618408,0.618408,0.507515,0.705537,0.377117,0.765552,0.232228,0.796148,0.078414,0.796148,-0.078414,0.765552,-0.232228,0.705537,-0.377117,0.618408,-0.507515,0.507515,-0.618408,0.377117,-0.705537,0.232228,-0.765552,0.078414,-0.796148,0.000000,-0.796148,0.000000,-0.800000,-0.600000,-0.800000,
-0.603843,-0.796157,-0.639018,-0.796157,-0.711114,-0.766294,-0.766294,-0.711114,-0.796157,-0.639018,-0.796157,-0.603843,-0.800000,-0.600000,-0.800000,0.600000,-0.796157,0.603843,-0.796157,0.639018,-0.766294,0.711114,-0.711114,0.766294,-0.639018,0.796157,-0.603843,0.796157,-0.600000,0.800000,0.000000,0.800000,0.000000,0.796148,0.000000,0.796148,$1*%
G04 Aperture macros list end*
%TA.AperFunction,ComponentPad*%
%ADD10O,2.000000X1.500000*%
%TD*%
%TA.AperFunction,ComponentPad*%
%ADD11R,2.500000X2.500000*%
%TD*%
%TA.AperFunction,ComponentPad*%
%ADD12R,3.000000X5.500000*%
%TD*%
%TA.AperFunction,ComponentPad*%
%ADD13O,1.500000X2.000000*%
%TD*%
%TA.AperFunction,ComponentPad*%
%ADD14C,1.600000*%
%TD*%
%TA.AperFunction,ComponentPad*%
%ADD15RoundRect,0.200000X-0.600000X-0.600000X0.600000X-0.600000X0.600000X0.600000X-0.600000X0.600000X0*%
%TD*%
%TA.AperFunction,ComponentPad*%
%ADD16FreePoly0,0.000000*%
%TD*%
%TA.AperFunction,ComponentPad*%
%ADD17FreePoly1,0.000000*%
%TD*%
%TA.AperFunction,Conductor*%
%ADD18C,0.200000*%
%TD*%
G04 APERTURE END LIST*
D10*
%TO.P,,2*%
%TO.N,N/C*%
X89000000Y-51500000D03*
%TD*%
D11*
%TO.P,TP4056_Module,1*%
%TO.N,N/C*%
X70100000Y-72400000D03*
%TO.P,TP4056_Module,2*%
X73600000Y-72400000D03*
%TO.P,TP4056_Module,3*%
X84000000Y-72400000D03*
%TO.P,TP4056_Module,4*%
X80500000Y-72400000D03*
%TO.P,TP4056_Module,5*%
X70100000Y-49500000D03*
%TO.P,TP4056_Module,6*%
X84000000Y-49500000D03*
%TD*%
D12*
%TO.P,MT3608_Module,1*%
%TO.N,N/C*%
X80500000Y-81300000D03*
%TO.P,MT3608_Module,2*%
X73500000Y-81300000D03*
%TO.P,MT3608_Module,3*%
X80500000Y-111700000D03*
%TO.P,MT3608_Module,4*%
X73500000Y-111700000D03*
%TD*%
D10*
%TO.P,,1*%
%TO.N,N/C*%
X89000000Y-49000000D03*
%TD*%
D13*
%TO.P,TOF200C,1*%
%TO.N,N/C*%
X98500000Y-87000000D03*
%TO.P,TOF200C,2*%
X96000000Y-87000000D03*
%TO.P,TOF200C,3*%
X93500000Y-87000000D03*
%TO.P,TOF200C,4*%
X91000000Y-87000000D03*
%TO.P,TOF200C,5*%
X88500000Y-87000000D03*
%TD*%
D14*
%TO.P,750uF,1*%
%TO.N,N/C*%
X88500000Y-104250000D03*
%TO.P,750uF,2*%
X88500000Y-101750000D03*
%TD*%
D13*
%TO.P,Servo,1*%
%TO.N,N/C*%
X93500000Y-111500000D03*
%TO.P,Servo,2*%
X91000000Y-111500000D03*
%TO.P,Servo,3*%
X88500000Y-111500000D03*
%TD*%
%TO.P,TB6612FNG_Module,1*%
%TO.N,N/C*%
X115500000Y-115500000D03*
%TO.P,TB6612FNG_Module,2*%
X113000000Y-115500000D03*
%TO.P,TB6612FNG_Module,3*%
X110500000Y-115500000D03*
%TO.P,TB6612FNG_Module,4*%
X108000000Y-115500000D03*
%TO.P,TB6612FNG_Module,5*%
X105500000Y-115500000D03*
%TO.P,TB6612FNG_Module,6*%
X103000000Y-115500000D03*
%TO.P,TB6612FNG_Module,7*%
X100500000Y-115500000D03*
%TO.P,TB6612FNG_Module,8*%
X98000000Y-115500000D03*
%TO.P,TB6612FNG_Module,9*%
X115500000Y-100500000D03*
%TO.P,TB6612FNG_Module,10*%
X113000000Y-100500000D03*
%TO.P,TB6612FNG_Module,11*%
X110500000Y-100500000D03*
%TO.P,TB6612FNG_Module,12*%
X108000000Y-100500000D03*
%TO.P,TB6612FNG_Module,13*%
X105500000Y-100500000D03*
%TO.P,TB6612FNG_Module,14*%
X103000000Y-100500000D03*
%TO.P,TB6612FNG_Module,15*%
X100500000Y-100500000D03*
%TO.P,TB6612FNG_Module,16*%
X98000000Y-100500000D03*
%TD*%
D15*
%TO.P,PicoW,1*%
%TO.N,N/C*%
X102720000Y-48880000D03*
D14*
%TO.P,PicoW,2*%
X102720000Y-51420000D03*
%TO.P,PicoW,4*%
X102720000Y-56500000D03*
%TO.P,PicoW,5*%
X102720000Y-59040000D03*
%TO.P,PicoW,6*%
X102720000Y-61580000D03*
%TO.P,PicoW,7*%
X102720000Y-64120000D03*
%TO.P,PicoW,9*%
X102720000Y-69200000D03*
%TO.P,PicoW,10*%
X102720000Y-71740000D03*
%TO.P,PicoW,11*%
X102720000Y-74280000D03*
%TO.P,PicoW,12*%
X102720000Y-76820000D03*
D16*
%TO.P,PicoW,13*%
X102720000Y-79360000D03*
D14*
%TO.P,PicoW,14*%
X102720000Y-81900000D03*
%TO.P,PicoW,36*%
X120500000Y-59040000D03*
%TO.P,PicoW,37*%
X120500000Y-56500000D03*
D17*
%TO.P,PicoW,38*%
X120500000Y-53960000D03*
D14*
%TO.P,PicoW,39*%
X120500000Y-51420000D03*
%TO.P,PicoW,40*%
X120500000Y-48880000D03*
%TD*%
D18*
%TO.N,*%
X110500000Y-71900000D02*
X110500000Y-100500000D01*
X102720000Y-64120000D02*
X110500000Y-71900000D01*
X108000000Y-74480000D02*
X108000000Y-100500000D01*
X102720000Y-69200000D02*
X108000000Y-74480000D01*
X105500000Y-77060000D02*
X105500000Y-100500000D01*
X102720000Y-74280000D02*
X105500000Y-77060000D01*
X109500000Y-56500000D02*
X102720000Y-56500000D01*
X119500000Y-107000000D02*
X119500000Y-66500000D01*
X105500000Y-110000000D02*
X116500000Y-110000000D01*
X119500000Y-66500000D02*
X109500000Y-56500000D01*
X103000000Y-107500000D02*
X105500000Y-110000000D01*
X116500000Y-110000000D02*
X119500000Y-107000000D01*
X103000000Y-100500000D02*
X103000000Y-107500000D01*
X100500000Y-92000000D02*
X100500000Y-100500000D01*
X101000000Y-91500000D02*
X100500000Y-92000000D01*
X101000000Y-68000000D02*
X101000000Y-91500000D01*
X104500000Y-64500000D02*
X101000000Y-68000000D01*
X104500000Y-60820000D02*
X104500000Y-64500000D01*
X102720000Y-59040000D02*
X104500000Y-60820000D01*
X98000000Y-93000000D02*
X98000000Y-100500000D01*
X100000000Y-91000000D02*
X98000000Y-93000000D01*
X100000000Y-64300000D02*
X100000000Y-91000000D01*
X102720000Y-61580000D02*
X100000000Y-64300000D01*
X85500000Y-106250000D02*
X83500000Y-104250000D01*
X100000000Y-113500000D02*
X87500000Y-113500000D01*
X83500000Y-104250000D02*
X79750000Y-104250000D01*
X87500000Y-113500000D02*
X85500000Y-111500000D01*
X85500000Y-111500000D02*
X85500000Y-106250000D01*
X96000000Y-87000000D02*
X96000000Y-58140000D01*
X96000000Y-58140000D02*
X102720000Y-51420000D01*
X93500000Y-58100000D02*
X102720000Y-48880000D01*
X93500000Y-87000000D02*
X93500000Y-58100000D01*
X98500000Y-87000000D02*
X98500000Y-86120000D01*
X117500000Y-113500000D02*
X100000000Y-113500000D01*
X122000000Y-109000000D02*
X117500000Y-113500000D01*
X122000000Y-55460000D02*
X122000000Y-109000000D01*
X120500000Y-53960000D02*
X122000000Y-55460000D01*
X100000000Y-113500000D02*
X101000000Y-113500000D01*
X101000000Y-113500000D02*
X103000000Y-115500000D01*
X79000000Y-77000000D02*
X77000000Y-75000000D01*
X83500000Y-77000000D02*
X79000000Y-77000000D01*
X91000000Y-84500000D02*
X83500000Y-77000000D01*
X77000000Y-75000000D02*
X77000000Y-63000000D01*
X91000000Y-87000000D02*
X91000000Y-84500000D01*
X79750000Y-104250000D02*
X73500000Y-98000000D01*
X88500000Y-104250000D02*
X83500000Y-104250000D01*
X73500000Y-81300000D02*
X73500000Y-98000000D01*
X88500000Y-104250000D02*
X88500000Y-111500000D01*
X77000000Y-63000000D02*
X88500000Y-51500000D01*
X88500000Y-51500000D02*
X89000000Y-51500000D01*
X77000000Y-77800000D02*
X77000000Y-75000000D01*
X73500000Y-81300000D02*
X77000000Y-77800000D01*
X73500000Y-98000000D02*
X73500000Y-111700000D01*
X70100000Y-72400000D02*
X70100000Y-67900000D01*
X70100000Y-67900000D02*
X89000000Y-49000000D01*
%TD*%
M02*
