M48
; DRILL file {KiCad 9.0.3} date 2025-10-17T23:20:49-0700
; FORMAT={-:-/ absolute / metric / decimal}
; #@! TF.CreationDate,2025-10-17T23:20:49-07:00
; #@! TF.GenerationSoftware,Kicad,Pcbnew,9.0.3
; #@! TF.FileFunction,Plated,1,2,PTH
FMAT,2
METRIC
; #@! TA.AperFunction,Plated,PTH,ComponentDrill
T1C0.800
; #@! TA.AperFunction,Plated,PTH,ComponentDrill
T2C1.000
; #@! TA.AperFunction,Plated,PTH,ComponentDrill
T3C2.000
%
G90
G05
T1
X88.5Y-101.75
X88.5Y-104.25
T2
X70.1Y-49.5
X70.1Y-72.4
X73.6Y-72.4
X80.5Y-72.4
X84.0Y-49.5
X84.0Y-72.4
X88.5Y-87.0
X88.5Y-111.5
X89.0Y-49.0
X89.0Y-51.5
X91.0Y-87.0
X91.0Y-111.5
X93.5Y-87.0
X93.5Y-111.5
X96.0Y-87.0
X98.0Y-100.5
X98.0Y-115.5
X98.5Y-87.0
X100.5Y-100.5
X100.5Y-115.5
X102.72Y-48.88
X102.72Y-51.42
X102.72Y-56.5
X102.72Y-59.04
X102.72Y-61.58
X102.72Y-64.12
X102.72Y-69.2
X102.72Y-71.74
X102.72Y-74.28
X102.72Y-76.82
X102.72Y-79.36
X102.72Y-81.9
X103.0Y-100.5
X103.0Y-115.5
X105.5Y-100.5
X105.5Y-115.5
X108.0Y-100.5
X108.0Y-115.5
X110.5Y-100.5
X110.5Y-115.5
X113.0Y-100.5
X113.0Y-115.5
X115.5Y-100.5
X115.5Y-115.5
X120.5Y-48.88
X120.5Y-51.42
X120.5Y-53.96
X120.5Y-56.5
X120.5Y-59.04
T3
X73.5Y-81.3
X73.5Y-111.7
X80.5Y-81.3
X80.5Y-111.7
M30
