%TF.GenerationSoftware,KiCad,Pcbnew,9.0.3*%
%TF.CreationDate,2025-10-17T23:17:00-07:00*%
%TF.ProjectId,Small_car_electronics.FCStd,536d616c-6c5f-4636-9172-5f656c656374,rev?*%
%TF.SameCoordinates,Original*%
%TF.FileFunction,Soldermask,Top*%
%TF.FilePolarity,Negative*%
%FSLAX46Y46*%
G04 Gerber Fmt 4.6, Leading zero omitted, Abs format (unit mm)*
G04 Created by KiCad (PCBNEW 9.0.3) date 2025-10-17 23:17:00*
%MOMM*%
%LPD*%
G01*
G04 APERTURE LIST*
G04 Aperture macros list*
%AMRoundRect*
0 Rectangle with rounded corners*
0 $1 Rounding radius*
0 $2 $3 $4 $5 $6 $7 $8 $9 X,Y pos of 4 corners*
0 Add a 4 corners polygon primitive as box body*
4,1,4,$2,$3,$4,$5,$6,$7,$8,$9,$2,$3,0*
0 Add four circle primitives for the rounded corners*
1,1,$1+$1,$2,$3*
1,1,$1+$1,$4,$5*
1,1,$1+$1,$6,$7*
1,1,$1+$1,$8,$9*
0 Add four rect primitives between the rounded corners*
20,1,$1+$1,$2,$3,$4,$5,0*
20,1,$1+$1,$4,$5,$6,$7,0*
20,1,$1+$1,$6,$7,$8,$9,0*
20,1,$1+$1,$8,$9,$2,$3,0*%
%AMFreePoly0*
4,1,37,0.603843,0.796157,0.639018,0.796157,0.711114,0.766294,0.766294,0.711114,0.796157,0.639018,0.796157,0.603843,0.800000,0.600000,0.800000,-0.600000,0.796157,-0.603843,0.796157,-0.639018,0.766294,-0.711114,0.711114,-0.766294,0.639018,-0.796157,0.603843,-0.796157,0.600000,-0.800000,0.000000,-0.800000,0.000000,-0.796148,-0.078414,-0.796148,-0.232228,-0.765552,-0.377117,-0.705537,
-0.507515,-0.618408,-0.618408,-0.507515,-0.705537,-0.377117,-0.765552,-0.232228,-0.796148,-0.078414,-0.796148,0.078414,-0.765552,0.232228,-0.705537,0.377117,-0.618408,0.507515,-0.507515,0.618408,-0.377117,0.705537,-0.232228,0.765552,-0.078414,0.796148,0.000000,0.796148,0.000000,0.800000,0.600000,0.800000,0.603843,0.796157,0.603843,0.796157,$1*%
%AMFreePoly1*
4,1,37,0.000000,0.796148,0.078414,0.796148,0.232228,0.765552,0.377117,0.705537,0.507515,0.618408,0.618408,0.507515,0.705537,0.377117,0.765552,0.232228,0.796148,0.078414,0.796148,-0.078414,0.765552,-0.232228,0.705537,-0.377117,0.618408,-0.507515,0.507515,-0.618408,0.377117,-0.705537,0.232228,-0.765552,0.078414,-0.796148,0.000000,-0.796148,0.000000,-0.800000,-0.600000,-0.800000,
-0.603843,-0.796157,-0.639018,-0.796157,-0.711114,-0.766294,-0.766294,-0.711114,-0.796157,-0.639018,-0.796157,-0.603843,-0.800000,-0.600000,-0.800000,0.600000,-0.796157,0.603843,-0.796157,0.639018,-0.766294,0.711114,-0.711114,0.766294,-0.639018,0.796157,-0.603843,0.796157,-0.600000,0.800000,0.000000,0.800000,0.000000,0.796148,0.000000,0.796148,$1*%
G04 Aperture macros list end*
%ADD10O,2.000000X1.500000*%
%ADD11R,2.500000X2.500000*%
%ADD12R,3.000000X5.500000*%
%ADD13O,1.500000X2.000000*%
%ADD14C,1.600000*%
%ADD15RoundRect,0.200000X-0.600000X-0.600000X0.600000X-0.600000X0.600000X0.600000X-0.600000X0.600000X0*%
%ADD16FreePoly0,0.000000*%
%ADD17FreePoly1,0.000000*%
G04 APERTURE END LIST*
D10*
%TO.C,*%
X89000000Y-51500000D03*
%TD*%
D11*
%TO.C,TP4056_Module*%
X70100000Y-72400000D03*
X73600000Y-72400000D03*
X84000000Y-72400000D03*
X80500000Y-72400000D03*
X70100000Y-49500000D03*
X84000000Y-49500000D03*
%TD*%
D12*
%TO.C,MT3608_Module*%
X80500000Y-81300000D03*
X73500000Y-81300000D03*
X80500000Y-111700000D03*
X73500000Y-111700000D03*
%TD*%
D10*
%TO.C,*%
X89000000Y-49000000D03*
%TD*%
D13*
%TO.C,TOF200C*%
X98500000Y-87000000D03*
X96000000Y-87000000D03*
X93500000Y-87000000D03*
X91000000Y-87000000D03*
X88500000Y-87000000D03*
%TD*%
D14*
%TO.C,750uF*%
X88500000Y-104250000D03*
X88500000Y-101750000D03*
%TD*%
D13*
%TO.C,Servo*%
X93500000Y-111500000D03*
X91000000Y-111500000D03*
X88500000Y-111500000D03*
%TD*%
%TO.C,TB6612FNG_Module*%
X115500000Y-115500000D03*
X113000000Y-115500000D03*
X110500000Y-115500000D03*
X108000000Y-115500000D03*
X105500000Y-115500000D03*
X103000000Y-115500000D03*
X100500000Y-115500000D03*
X98000000Y-115500000D03*
X115500000Y-100500000D03*
X113000000Y-100500000D03*
X110500000Y-100500000D03*
X108000000Y-100500000D03*
X105500000Y-100500000D03*
X103000000Y-100500000D03*
X100500000Y-100500000D03*
X98000000Y-100500000D03*
%TD*%
D15*
%TO.C,PicoW*%
X102720000Y-48880000D03*
D14*
X102720000Y-51420000D03*
X102720000Y-56500000D03*
X102720000Y-59040000D03*
X102720000Y-61580000D03*
X102720000Y-64120000D03*
X102720000Y-69200000D03*
X102720000Y-71740000D03*
X102720000Y-74280000D03*
X102720000Y-76820000D03*
D16*
X102720000Y-79360000D03*
D14*
X102720000Y-81900000D03*
X120500000Y-59040000D03*
X120500000Y-56500000D03*
D17*
X120500000Y-53960000D03*
D14*
X120500000Y-51420000D03*
X120500000Y-48880000D03*
%TD*%
M02*
